<mxfile host="app.diagrams.net" modified="2020-11-08T08:39:09.459Z" agent="5.0 (Windows NT 10.0; Win64; x64) AppleWebKit/537.36 (KHTML, like Gecko) Chrome/86.0.4240.183 Safari/537.36" etag="T7GuBYZhx9-I5h-Mb-RV" version="13.9.2" type="github">
  <diagram id="OoJVnhfPurYvYdoVszpG" name="Page-1">
    <mxGraphModel dx="1662" dy="762" grid="1" gridSize="10" guides="1" tooltips="1" connect="1" arrows="1" fold="1" page="1" pageScale="1" pageWidth="4681" pageHeight="3300" math="0" shadow="0">
      <root>
        <mxCell id="0" />
        <mxCell id="1" parent="0" />
        <mxCell id="pIviykfnkSEbJ2kZ1Z7Y-117" value="" style="group" vertex="1" connectable="0" parent="1">
          <mxGeometry x="920" y="530" width="450.91" height="280" as="geometry" />
        </mxCell>
        <mxCell id="pIviykfnkSEbJ2kZ1Z7Y-118" value="" style="group;color=#62B9E6" vertex="1" connectable="0" parent="pIviykfnkSEbJ2kZ1Z7Y-117">
          <mxGeometry width="450.9100000000001" height="280" as="geometry" />
        </mxCell>
        <mxCell id="pIviykfnkSEbJ2kZ1Z7Y-119" value="" style="html=1;align=center;verticalAlign=top;rounded=1;absoluteArcSize=1;arcSize=10;dashed=1;strokeColor=#62B9E6;" vertex="1" parent="pIviykfnkSEbJ2kZ1Z7Y-118">
          <mxGeometry width="450.9099999999999" height="280" as="geometry" />
        </mxCell>
        <mxCell id="pIviykfnkSEbJ2kZ1Z7Y-53" value="" style="group;color=#62B9E6" vertex="1" connectable="0" parent="1">
          <mxGeometry x="1160" y="550" width="150" height="100" as="geometry" />
        </mxCell>
        <mxCell id="pIviykfnkSEbJ2kZ1Z7Y-54" value="&lt;span style=&quot;font-size: 14px&quot;&gt;ElasticSearch&lt;br&gt;搜索引擎&lt;br&gt;&lt;/span&gt;" style="html=1;align=center;verticalAlign=top;rounded=1;absoluteArcSize=1;arcSize=10;dashed=1;strokeColor=#62B9E6;" vertex="1" parent="pIviykfnkSEbJ2kZ1Z7Y-53">
          <mxGeometry width="149.99999999999997" height="100" as="geometry" />
        </mxCell>
        <mxCell id="pIviykfnkSEbJ2kZ1Z7Y-28" value="" style="shape=image;html=1;verticalAlign=top;verticalLabelPosition=bottom;labelBackgroundColor=#ffffff;imageAspect=0;aspect=fixed;image=https://cdn4.iconfinder.com/data/icons/logos-brands-5/24/elasticsearch-128.png;fillColor=#62B9E6;gradientColor=none;strokeColor=#62B9E6;" vertex="1" parent="pIviykfnkSEbJ2kZ1Z7Y-53">
          <mxGeometry x="52.25" y="45.5" width="45.5" height="45.5" as="geometry" />
        </mxCell>
        <mxCell id="pIviykfnkSEbJ2kZ1Z7Y-47" value="" style="group;color=#62B9E6" vertex="1" connectable="0" parent="1">
          <mxGeometry x="980" y="690" width="150" height="110.5" as="geometry" />
        </mxCell>
        <mxCell id="pIviykfnkSEbJ2kZ1Z7Y-48" value="&lt;font style=&quot;font-size: 14px&quot;&gt;MySQL&lt;/font&gt;" style="html=1;align=center;verticalAlign=top;rounded=1;absoluteArcSize=1;arcSize=10;dashed=1;strokeColor=#62B9E6;" vertex="1" parent="pIviykfnkSEbJ2kZ1Z7Y-47">
          <mxGeometry width="149.99999999999997" height="100" as="geometry" />
        </mxCell>
        <mxCell id="pIviykfnkSEbJ2kZ1Z7Y-30" value="" style="shape=image;html=1;verticalAlign=top;verticalLabelPosition=bottom;labelBackgroundColor=#ffffff;imageAspect=0;aspect=fixed;image=https://cdn1.iconfinder.com/data/icons/simple-icons/128/mysql-128-black.png;fillColor=#62B9E6;gradientColor=none;strokeColor=#62B9E6;" vertex="1" parent="pIviykfnkSEbJ2kZ1Z7Y-47">
          <mxGeometry x="40.25" y="30.5" width="69.5" height="69.5" as="geometry" />
        </mxCell>
        <mxCell id="pIviykfnkSEbJ2kZ1Z7Y-3" value="" style="group;color=#62B9E6" vertex="1" connectable="0" parent="1">
          <mxGeometry x="10" y="300" width="150" height="100" as="geometry" />
        </mxCell>
        <mxCell id="pIviykfnkSEbJ2kZ1Z7Y-1" value="&lt;font style=&quot;font-size: 14px&quot;&gt;Moblie&lt;br&gt;&lt;/font&gt;" style="html=1;align=center;verticalAlign=top;rounded=1;absoluteArcSize=1;arcSize=10;dashed=1;strokeColor=#62B9E6;" vertex="1" parent="pIviykfnkSEbJ2kZ1Z7Y-3">
          <mxGeometry width="149.99999999999997" height="100" as="geometry" />
        </mxCell>
        <mxCell id="pIviykfnkSEbJ2kZ1Z7Y-24" value="" style="pointerEvents=1;shadow=0;dashed=0;html=1;strokeColor=none;fillColor=#62B9E6;aspect=fixed;labelPosition=center;verticalLabelPosition=bottom;verticalAlign=top;align=center;outlineConnect=0;shape=mxgraph.vvd.phone;" vertex="1" parent="pIviykfnkSEbJ2kZ1Z7Y-3">
          <mxGeometry x="60" y="40" width="29.5" height="50" as="geometry" />
        </mxCell>
        <mxCell id="pIviykfnkSEbJ2kZ1Z7Y-4" value="" style="group;color=#62B9E6" vertex="1" connectable="0" parent="1">
          <mxGeometry x="10" y="430" width="150" height="100" as="geometry" />
        </mxCell>
        <mxCell id="pIviykfnkSEbJ2kZ1Z7Y-5" value="&lt;font style=&quot;font-size: 14px&quot;&gt;PC&lt;/font&gt;" style="html=1;align=center;verticalAlign=top;rounded=1;absoluteArcSize=1;arcSize=10;dashed=1;strokeColor=#62B9E6;" vertex="1" parent="pIviykfnkSEbJ2kZ1Z7Y-4">
          <mxGeometry width="149.99999999999997" height="100" as="geometry" />
        </mxCell>
        <mxCell id="pIviykfnkSEbJ2kZ1Z7Y-25" value="" style="pointerEvents=1;shadow=0;dashed=0;html=1;strokeColor=none;fillColor=#62B9E6;aspect=fixed;labelPosition=center;verticalLabelPosition=bottom;verticalAlign=top;align=center;outlineConnect=0;shape=mxgraph.vvd.monitor;" vertex="1" parent="pIviykfnkSEbJ2kZ1Z7Y-4">
          <mxGeometry x="50" y="40" width="50" height="46.5" as="geometry" />
        </mxCell>
        <mxCell id="pIviykfnkSEbJ2kZ1Z7Y-12" value="" style="group;color=#62B9E6" vertex="1" connectable="0" parent="1">
          <mxGeometry x="250" y="350" width="150" height="100" as="geometry" />
        </mxCell>
        <mxCell id="pIviykfnkSEbJ2kZ1Z7Y-13" value="&lt;font style=&quot;font-size: 14px&quot;&gt;Gateway&lt;/font&gt;" style="html=1;align=center;verticalAlign=top;rounded=1;absoluteArcSize=1;arcSize=10;dashed=1;strokeColor=#62B9E6;" vertex="1" parent="pIviykfnkSEbJ2kZ1Z7Y-12">
          <mxGeometry width="149.99999999999997" height="100" as="geometry" />
        </mxCell>
        <mxCell id="pIviykfnkSEbJ2kZ1Z7Y-32" value="" style="aspect=fixed;perimeter=ellipsePerimeter;html=1;align=center;shadow=0;dashed=0;fontColor=#4277BB;labelBackgroundColor=#ffffff;fontSize=12;spacingTop=3;image;image=img/lib/ibm/security/gateway.svg;fillColor=#62B9E6;gradientColor=none;" vertex="1" parent="pIviykfnkSEbJ2kZ1Z7Y-12">
          <mxGeometry x="45" y="30.5" width="60" height="60" as="geometry" />
        </mxCell>
        <mxCell id="pIviykfnkSEbJ2kZ1Z7Y-34" style="edgeStyle=orthogonalEdgeStyle;rounded=0;orthogonalLoop=1;jettySize=auto;html=1;exitX=1;exitY=0.5;exitDx=0;exitDy=0;entryX=0;entryY=0.75;entryDx=0;entryDy=0;" edge="1" parent="1" source="pIviykfnkSEbJ2kZ1Z7Y-5" target="pIviykfnkSEbJ2kZ1Z7Y-13">
          <mxGeometry relative="1" as="geometry" />
        </mxCell>
        <mxCell id="pIviykfnkSEbJ2kZ1Z7Y-35" style="edgeStyle=orthogonalEdgeStyle;rounded=0;orthogonalLoop=1;jettySize=auto;html=1;exitX=1;exitY=0.5;exitDx=0;exitDy=0;entryX=0;entryY=0.5;entryDx=0;entryDy=0;" edge="1" parent="1" source="pIviykfnkSEbJ2kZ1Z7Y-13" target="pIviykfnkSEbJ2kZ1Z7Y-18">
          <mxGeometry relative="1" as="geometry" />
        </mxCell>
        <mxCell id="pIviykfnkSEbJ2kZ1Z7Y-37" value="" style="group;color=#62B9E6" vertex="1" connectable="0" parent="1">
          <mxGeometry x="210" y="640" width="150" height="100" as="geometry" />
        </mxCell>
        <mxCell id="pIviykfnkSEbJ2kZ1Z7Y-38" value="&lt;font style=&quot;font-size: 14px&quot;&gt;Senta&lt;br&gt;分布式事务管理&lt;br&gt;&lt;/font&gt;" style="html=1;align=center;verticalAlign=top;rounded=1;absoluteArcSize=1;arcSize=10;dashed=1;strokeColor=#62B9E6;" vertex="1" parent="pIviykfnkSEbJ2kZ1Z7Y-37">
          <mxGeometry width="149.99999999999997" height="100" as="geometry" />
        </mxCell>
        <mxCell id="pIviykfnkSEbJ2kZ1Z7Y-65" value="" style="verticalLabelPosition=bottom;html=1;verticalAlign=top;align=center;strokeColor=none;fillColor=#00BEF2;shape=mxgraph.azure.laptop;pointerEvents=1;" vertex="1" parent="pIviykfnkSEbJ2kZ1Z7Y-37">
          <mxGeometry x="50" y="54.25" width="50" height="30" as="geometry" />
        </mxCell>
        <mxCell id="pIviykfnkSEbJ2kZ1Z7Y-40" value="" style="group;color=#62B9E6" vertex="1" connectable="0" parent="1">
          <mxGeometry x="380" y="640" width="150" height="100" as="geometry" />
        </mxCell>
        <mxCell id="pIviykfnkSEbJ2kZ1Z7Y-41" value="&lt;font style=&quot;font-size: 14px&quot;&gt;OSS&lt;br&gt;七牛云对象存储&lt;br&gt;&lt;/font&gt;" style="html=1;align=center;verticalAlign=top;rounded=1;absoluteArcSize=1;arcSize=10;dashed=1;strokeColor=#62B9E6;" vertex="1" parent="pIviykfnkSEbJ2kZ1Z7Y-40">
          <mxGeometry width="149.99999999999997" height="100" as="geometry" />
        </mxCell>
        <mxCell id="pIviykfnkSEbJ2kZ1Z7Y-68" value="" style="shape=image;html=1;verticalAlign=top;verticalLabelPosition=bottom;labelBackgroundColor=#ffffff;imageAspect=0;aspect=fixed;image=https://cdn3.iconfinder.com/data/icons/farm-glyph-2/32/Farm_farm_animal_cow_milk-128.png;fillColor=#62B9E6;gradientColor=none;" vertex="1" parent="pIviykfnkSEbJ2kZ1Z7Y-40">
          <mxGeometry x="47.5" y="40" width="55" height="55" as="geometry" />
        </mxCell>
        <mxCell id="pIviykfnkSEbJ2kZ1Z7Y-43" value="" style="group;color=#62B9E6" vertex="1" connectable="0" parent="1">
          <mxGeometry x="650" y="640" width="150" height="100" as="geometry" />
        </mxCell>
        <mxCell id="pIviykfnkSEbJ2kZ1Z7Y-44" value="&lt;font style=&quot;font-size: 14px&quot;&gt;RocketMQ&lt;br&gt;消息队列&lt;br&gt;&lt;/font&gt;" style="html=1;align=center;verticalAlign=top;rounded=1;absoluteArcSize=1;arcSize=10;dashed=1;strokeColor=#62B9E6;" vertex="1" parent="pIviykfnkSEbJ2kZ1Z7Y-43">
          <mxGeometry width="149.99999999999997" height="100" as="geometry" />
        </mxCell>
        <mxCell id="pIviykfnkSEbJ2kZ1Z7Y-31" value="" style="shape=image;html=1;verticalAlign=top;verticalLabelPosition=bottom;labelBackgroundColor=#ffffff;imageAspect=0;aspect=fixed;image=https://cdn2.iconfinder.com/data/icons/circle-icons-1/64/rocket-128.png;fillColor=none;gradientColor=none;" vertex="1" parent="pIviykfnkSEbJ2kZ1Z7Y-43">
          <mxGeometry x="49.75" y="40" width="50.5" height="50.5" as="geometry" />
        </mxCell>
        <mxCell id="pIviykfnkSEbJ2kZ1Z7Y-46" style="edgeStyle=orthogonalEdgeStyle;rounded=0;orthogonalLoop=1;jettySize=auto;html=1;exitX=1;exitY=0.5;exitDx=0;exitDy=0;entryX=0;entryY=0.5;entryDx=0;entryDy=0;" edge="1" parent="1" source="pIviykfnkSEbJ2kZ1Z7Y-1" target="pIviykfnkSEbJ2kZ1Z7Y-13">
          <mxGeometry relative="1" as="geometry" />
        </mxCell>
        <mxCell id="pIviykfnkSEbJ2kZ1Z7Y-50" value="" style="group;color=#62B9E6" vertex="1" connectable="0" parent="1">
          <mxGeometry x="980" y="550" width="150" height="100" as="geometry" />
        </mxCell>
        <mxCell id="pIviykfnkSEbJ2kZ1Z7Y-51" value="&lt;font style=&quot;font-size: 14px&quot;&gt;Redis&lt;/font&gt;" style="html=1;align=center;verticalAlign=top;rounded=1;absoluteArcSize=1;arcSize=10;dashed=1;strokeColor=#62B9E6;" vertex="1" parent="pIviykfnkSEbJ2kZ1Z7Y-50">
          <mxGeometry width="149.99999999999997" height="100" as="geometry" />
        </mxCell>
        <mxCell id="pIviykfnkSEbJ2kZ1Z7Y-26" value="" style="aspect=fixed;html=1;points=[];align=center;image;fontSize=12;image=img/lib/mscae/Cache_Redis_Product.svg;fillColor=none;gradientColor=none;" vertex="1" parent="pIviykfnkSEbJ2kZ1Z7Y-50">
          <mxGeometry x="50" y="44.5" width="50" height="42" as="geometry" />
        </mxCell>
        <mxCell id="pIviykfnkSEbJ2kZ1Z7Y-56" value="" style="group;color=#62B9E6;fillColor=none;" vertex="1" connectable="0" parent="1">
          <mxGeometry x="650" y="130" width="136.25" height="80" as="geometry" />
        </mxCell>
        <mxCell id="pIviykfnkSEbJ2kZ1Z7Y-57" value="&lt;font style=&quot;font-size: 14px&quot;&gt;Nacos/Config&lt;br&gt;注册中心/配置中心&lt;br&gt;&lt;/font&gt;" style="html=1;align=center;verticalAlign=top;rounded=1;absoluteArcSize=1;arcSize=10;dashed=1;strokeColor=#62B9E6;fillColor=#62B9E6;" vertex="1" parent="pIviykfnkSEbJ2kZ1Z7Y-56">
          <mxGeometry width="131.85483870967738" height="80" as="geometry" />
        </mxCell>
        <mxCell id="pIviykfnkSEbJ2kZ1Z7Y-107" value="" style="shape=image;verticalLabelPosition=bottom;labelBackgroundColor=#ffffff;verticalAlign=top;aspect=fixed;imageAspect=0;image=data:image/png,iVBORw0KGgoAAAANSUhEUgAAAgIAAABkBAMAAAAGWUWRAAAABGdBTUEAALGPC/xhBQAAACdQTFRF////////////////////////////////////////////AAAA////oR+XowAAAAx0Uk5TFaXBJ4bbWPI9B24AiCQ8IAAADXBJREFUeNq1Xct3E9cZN3Zd0nqTNiUJoAU9pSEGLdI4waZmkZBQcNGCBDc8ogUkbQBLixQHzPHRgkd52V4Ug13MbNLThkfHCxkrOh7NSsby+OjMH1VLGmnu4/u++12J3EM4J7ZGc+d3f9/vfq+5dPmGkR9oDof+lOOzx4Pb/z4ZXv7NhQO+5eiZOpQOP99x8xecD3s9A9AYVj7Wtfnf/Me//VMf9j2lsDmm8Xtd3xMGn33PfIyhQyejb7y8+2uLx/emfp2LLry045oR5b/+fiKExk4dgZ+lN38+6hgRGEan9kP998EnnOd4dCgnTCfYfY8LwM+3ic9ReXOYROsfJ0Nk7NMQWEnXf3GifQ7caD7Oc/Nz/FGdWeUo6/nz53LKhX8/S3z6B+z5w0BH4FY0k+F2EYg/sdpnepAbOX1K7zAUZPmw/iwVlHP5IyE+NATy6eg3u9q1gkT87ScMlvwVOKe9RgiWwUcK3iCtEhmaDhSavym3yYH7wrJWpmkGIJP6wmQCyJpOwCx4nwJA58Bc61fH2kLAS4lfT5LgD6htvksj8BS7sAIpTzEXWnFgpvWrK20hUJK+nlKCx/jMgpF2qFO7HzCpVGjHgWw8jeF2EJihERZsORnaPUlrBtSaVjUNWQotERAQO04jAO7cLSGNxjr6IH8j5zWJi0CCvHCXJQV0KxAuKDv2HHioWiZmBg/peQXbMQRu0Req4lsIO+BAOGLPgRkTxLyVxBXEoGub8iWvW7YjBKrWHPA0474KP0i3aWLYNvLUeKErqU067MAKwmDalgNF7QawW5E3TgxxSkvG68I1Gx00cABaB5oDs/odQLnoNT8ITIIU48JjNkZAcyBcdSw5ANwQkrR8kvEglem2KCDviMkOOQDoGM0B4IYveVThkSDFutAlrNIWgaodB1YAoV5zyOCJ2hE1JSjkWBfG6vsiZ28FMo+DjBUHoE2+4nC4HEwAcz3FoMAEcGEsooNtcCBrYCLJAVDgMkanIdj9bKBroJbzM3g36sNe3nFhoGdobJv68/7mFYviTz//9L/AUKfXtWjw6UgOZDk007bCz675vuNt/uK1wzQJlLkFe5trvX8PvCGK7klwlJe7VTmgSTnJAVB5XxpilTgn5HnnKBKU8JyQmjOKrssL5HidmbzWEFiz4MByfMNqGv0GhSlyLuA6QQJZBSofEZnA01EalhOimRBQzZjigBCF7FtEpdBLU/kgOXEmeqWKCigpseUUsG4FxFcmEVg0OPYUB+aEG25FvUIpWiurOpNPYSRI0fvEo7S+kS5ROxKbA4oWUhyINT7oW0KlcJDcbZXgLyaBTIFVvUy0RZffF2SQx0Ug3lpMHPASAgtX4i8YxxOJp4Cl+RCmoEyBEUOGsnHZj6RnyrUCJbojOCAo74Zo7VVMLsMKVCmUA9oqmOlYcwxxY1kxy2874YAsIgQHHku8WUTiq4fGHEAvdPMUGv7FJBBXry4ELTEKTneEwFUHRCBDxDvPJXOXsNpK5x8Uj6m6AFIAnnxBFYJ/tf73y06sQI5QCARmpCswKRRucMU3JpCe8ykgCVGD9i02BV92xAEp/0ogkJCssAgnnUVH9RhW6U6qoT6LApL9VGW+dWYFkhbiCAjkXZcdH1EKV8j8i1rncm0oIPmAq7ISjneGgHhLHIGi4pSm5NnotrphrKZUQV9gDZ9+TMPggOQPbHSkA5JTXUKdmVkFsUFQ8eY49aQmCWAKEA5ur/ypF4aELZ8DwQEGBw4q0jkLckj4FFFTbCQSEV+AmH5BznwUDCVAGoFAvOtxBgIq62EpXGQ9SYME1hQQtai2GcwbSoC0FUzmwKQxioCXVowmn4asKLbUcSpYqZEApkCVjHFisDYcWXanrTnw8jyohagOaEvuQVIowLKPbC/pDgPLjaB+2UGJYmIgXr5njUABTBqjHNA9oBnACpep/KFMAnsVkMSnXvcVk9KVP9+9eXco+vMeBwHp8pacowjo0g9JYZGtTd0u1JRiynSU5IwAVjIKJtCWyRiBDbmuccKEgB4JlULdJSuBToLPk3czBQTLryM8R6TJL/3HiIAUpuqPNY0JYVWPlq/otrLGRMCKAuI0pk3dA3DfnoiAfwdIemMcWAn1WDyhOyQvbFOXdhQQ09UZJRkBNa05BgSKgBZiCEChICCFs7ZZGzsKiJ93GYXGdw0IyNdnSASEsP8elDnVfvRtGxSomvOdi7L6msr0IwYE7osfHicRgLLjgBRaxqueLQUE9a8jMG9q1hmmEZDq/I2kMYZAErBVwQqvagj0/yQUECxvp5o0AccpGgE5b7ud8Anh1LAuhVut8lb2FPBmFB9kzlSin6YReKQJMcKBAliOzmqB4NYcyymGa6UjvjUHzK1UaniiICBPIYMj0At6u/ECNJ18SysoWu6FAgeCaEu6ZWrW6aMRKKjVCwSBLPiNOjN6LTN3521JkFU9cSMJ9tEISEpSezgEgSS4ULoU2u6G1iRYVBHwTK2LVRoBeUPdJSJwEX7UDTgxvKYiwPSIspYkSGm66R0xaGEfjYDkV5YxDhQQUmnGYe0Vz3fkFTcyyEmbXqqu8+paik0/m3pWAvemOWTL0gRyKWcbGWX5+RE9MorKebQUjNMckHtXNmAOeDMIp5ZUbvCj43z0BPM5GxKsgBN5nGS34YoIOJpbU4twYB1IIGnpZRXpIitVXM+QXAF9gmNWGZKWIRxm74cxAut6QFvTQpAD+RxSmtCkkJ8lSzSdTqvt4AXCMW9qGx4oZwwISM1v5fgdFxes3J/2yYDJY2ZKa9XTJgmeWpDgIA7Va9/8rzU+3oNKoa4DSmPmEwi5WdR336ogLfgXZCmvTp42SJBi1sny50Jk1eK9IN6tpM6eVUgHZtD8p5Y4YVZMuoXcmsffDpSKCTVuIB2P8dt2G3BvBmg9CbQ+p8WMM6xkcRSWZ4DtyKZq5vvGW2iuSYyA8OP7IAIuWDd3fDqBOsdazG55DuztoNcilB6EMQUR8JI0B4ohHu+oUlhAOxWB9WlGlGwSJJRGImoswcSFrADJtl0EtiDdcVfbiVgdFN3qMjCVQHi/YdWYT1qBN05gN/ThNydiDniDRG+UKoWcLhrBRO1I0BtatFDGEU8F4YCDOueqoaUIV7eo1hHsOqkmrZQgEVoE37F6VYw6ANdeMkS5iJDCwdC0G4j5WVgJqua86k5zOikHOtAIB6A3gy6iy0w2VhSMHZXd0MNySLBobFXkcCALx+/dBAdiUw905D1VCh+IXbXDtFcj8EQmwXd0VMTqGxIQ4HAAyLa5mNxjsUq0cgkqW++jndXmtHEqDJk+sRKkrTpmHfC9OzgHhC2fzvQd18IMqLs+DafzH8stjnpsvSW0kgFhYqsMJYTekHM5Qgi0E8lvWKjbtpLVE3qaZRJoffkrJ8OQ5XHrulnm6ABQhXXJchEkoquAnStv2Xg30IqOsgYfKUAfsUwqW3nFcHDgEnVzOGSPPFXZuXhb+vB1oq1dJkEgnfqlvmllrjAKcfo6DwHthXkXSQGoQ2snUt62ezOerXc9RxT1FKdEettOOXKI0Tr3vjE6Xqc1OkYgC6fm8ASSiuXoNSybd5WqIobBjqa1739LyX0aKeB9kMMyJKgOyFXUGAEvabA+IYm4rmaWI+R2Xxjo6bmtvXWrujWPtWaoHV8PdA3FZ9TpNcmhu+AYO4xnyWawSF9bAleLmsZN3noZ21fCiYkJuY8XDJ8X4Qu1KtAwUEAhRoZpBeqb5a5mnf2mgnY0NY/39r1+BEOBdZ3oDnEQkI2XQkBJlLhU3dyHC0rPNXEkxlXa7cOHa4dApBre1KfPaB1QEyUu1iVhlELOQSwdnMKx5tshEG0Ftfd936F1QOnOc1UrxxQYKCz3tkcB+5NYOAjsFPydEdIKFF/GVYtAG+bsXdlntjVgp/EU7CjAQSCibiKaII1ASUfALISgoTBOZHIYnUUmCnAQqEqPlqERkCLbBgI/MvLTQG39nz/ZqVyTviUC/ZJdniZ1QBZxl10BgXhiOJkt3I65daaT2TKWCFTkYGWj6yCZixNF3DWUi+LxACgtL5y3WEksiwiM3/mWCDQEt9W5uBpzAM5G3lF2f7Fu7jBaW+L9gjyhkTrglNwRv3MsEWjmaForaUKgqDjtpZDTHgf5DB5xSmf4yk7pTHL33CQXgXhDrsChr6mSEZuph57UGtIntXroCX3B974lAq09F7CCSUO1bd2iFLwElnSR44rNp/UuY/1xn/i2CLzuKxX6dSMHWsFBv7FcBFbdxGyEB59VembBmOZ9C2TAG44tAl9orR7HDXtBnChp7Nda7G+ATfHYPODU7vCVntpNIzDap+mra+RAU8MbRzwhhwwQnpzSyPyBdhbZUY+R5fTzX6nYXTrr2CJwZlhbpLJjRsCf3xOfKs0TQiqXqJzeP3rN8Xnjl9vgjBkbgcrbjl5u2O53ffiXaOBylJ96ctZvXL3lV61BJidL8edU39nbL/4LDg4XgNo0Wg1yl9F/wQFFoHaJdK/6+e5nNqNjb8FZ8Db/EFz0/Fc8em5vEiEYffbegmNzmef3jG0SobL3Qh82JW9qbOybJ0/0v272AYZVl6D/A1tD9MJKIrS7AAAAAElFTkSuQmCC;fillColor=#FF1414;" vertex="1" parent="pIviykfnkSEbJ2kZ1Z7Y-56">
          <mxGeometry x="22.123064516129034" y="49.304" width="92" height="17.896" as="geometry" />
        </mxCell>
        <mxCell id="pIviykfnkSEbJ2kZ1Z7Y-75" value="" style="group" vertex="1" connectable="0" parent="1">
          <mxGeometry x="500" y="290" width="450" height="210" as="geometry" />
        </mxCell>
        <mxCell id="pIviykfnkSEbJ2kZ1Z7Y-72" value="" style="group;color=#62B9E6" vertex="1" connectable="0" parent="pIviykfnkSEbJ2kZ1Z7Y-75">
          <mxGeometry width="450" height="210" as="geometry" />
        </mxCell>
        <mxCell id="pIviykfnkSEbJ2kZ1Z7Y-73" value="" style="html=1;align=center;verticalAlign=top;rounded=1;absoluteArcSize=1;arcSize=10;dashed=1;strokeColor=#62B9E6;" vertex="1" parent="pIviykfnkSEbJ2kZ1Z7Y-72">
          <mxGeometry width="449.99999999999983" height="210" as="geometry" />
        </mxCell>
        <mxCell id="pIviykfnkSEbJ2kZ1Z7Y-139" value="Feign服务调用" style="text;html=1;strokeColor=none;fillColor=none;align=center;verticalAlign=middle;whiteSpace=wrap;rounded=0;" vertex="1" parent="pIviykfnkSEbJ2kZ1Z7Y-72">
          <mxGeometry x="187.5" y="20" width="72.5" height="20" as="geometry" />
        </mxCell>
        <mxCell id="pIviykfnkSEbJ2kZ1Z7Y-150" value="A1服务消费者" style="text;html=1;strokeColor=none;fillColor=none;align=center;verticalAlign=middle;whiteSpace=wrap;rounded=0;" vertex="1" parent="pIviykfnkSEbJ2kZ1Z7Y-72">
          <mxGeometry x="76.36" y="20" width="82.5" height="20" as="geometry" />
        </mxCell>
        <mxCell id="pIviykfnkSEbJ2kZ1Z7Y-151" value="A2服务生产者" style="text;html=1;strokeColor=none;fillColor=none;align=center;verticalAlign=middle;whiteSpace=wrap;rounded=0;" vertex="1" parent="pIviykfnkSEbJ2kZ1Z7Y-72">
          <mxGeometry x="292.39" y="20" width="80" height="20" as="geometry" />
        </mxCell>
        <mxCell id="pIviykfnkSEbJ2kZ1Z7Y-20" value="" style="group;color=#62B9E6" vertex="1" connectable="0" parent="pIviykfnkSEbJ2kZ1Z7Y-75">
          <mxGeometry x="255.6818181818182" y="60" width="153.4090909090909" height="100" as="geometry" />
        </mxCell>
        <mxCell id="pIviykfnkSEbJ2kZ1Z7Y-21" value="&lt;font style=&quot;font-size: 14px&quot;&gt;Service&lt;/font&gt;" style="html=1;align=center;verticalAlign=top;rounded=1;absoluteArcSize=1;arcSize=10;dashed=1;strokeColor=#62B9E6;" vertex="1" parent="pIviykfnkSEbJ2kZ1Z7Y-20">
          <mxGeometry width="153.40909090909088" height="100" as="geometry" />
        </mxCell>
        <mxCell id="pIviykfnkSEbJ2kZ1Z7Y-22" value="" style="pointerEvents=1;shadow=0;dashed=0;html=1;strokeColor=#62B9E6;fillColor=#434445;aspect=fixed;labelPosition=center;verticalLabelPosition=bottom;verticalAlign=top;align=center;outlineConnect=0;shape=mxgraph.vvd.on_demand_self_service;" vertex="1" parent="pIviykfnkSEbJ2kZ1Z7Y-20">
          <mxGeometry x="51.136363636363626" y="48" width="48.888888888888886" height="41.55555555555556" as="geometry" />
        </mxCell>
        <mxCell id="pIviykfnkSEbJ2kZ1Z7Y-36" style="edgeStyle=orthogonalEdgeStyle;rounded=0;orthogonalLoop=1;jettySize=auto;html=1;exitX=1;exitY=0.5;exitDx=0;exitDy=0;entryX=0;entryY=0.5;entryDx=0;entryDy=0;" edge="1" parent="pIviykfnkSEbJ2kZ1Z7Y-75" source="pIviykfnkSEbJ2kZ1Z7Y-18" target="pIviykfnkSEbJ2kZ1Z7Y-21">
          <mxGeometry relative="1" as="geometry" />
        </mxCell>
        <mxCell id="pIviykfnkSEbJ2kZ1Z7Y-18" value="&lt;font style=&quot;font-size: 14px&quot;&gt;Service&lt;/font&gt;" style="html=1;align=center;verticalAlign=top;rounded=1;absoluteArcSize=1;arcSize=10;dashed=1;strokeColor=#62B9E6;" vertex="1" parent="pIviykfnkSEbJ2kZ1Z7Y-75">
          <mxGeometry x="40.9090909090909" y="60" width="153.40909090909088" height="100" as="geometry" />
        </mxCell>
        <mxCell id="pIviykfnkSEbJ2kZ1Z7Y-16" value="" style="pointerEvents=1;shadow=0;dashed=0;html=1;strokeColor=#62B9E6;fillColor=#434445;aspect=fixed;labelPosition=center;verticalLabelPosition=bottom;verticalAlign=top;align=center;outlineConnect=0;shape=mxgraph.vvd.on_demand_self_service;" vertex="1" parent="pIviykfnkSEbJ2kZ1Z7Y-75">
          <mxGeometry x="92.04545454545455" y="108" width="48.888888888888886" height="41.55555555555556" as="geometry" />
        </mxCell>
        <mxCell id="pIviykfnkSEbJ2kZ1Z7Y-152" style="edgeStyle=orthogonalEdgeStyle;rounded=0;orthogonalLoop=1;jettySize=auto;html=1;exitX=0.5;exitY=1;exitDx=0;exitDy=0;entryX=0.5;entryY=0;entryDx=0;entryDy=0;" edge="1" parent="pIviykfnkSEbJ2kZ1Z7Y-75" source="pIviykfnkSEbJ2kZ1Z7Y-151" target="pIviykfnkSEbJ2kZ1Z7Y-21">
          <mxGeometry relative="1" as="geometry" />
        </mxCell>
        <mxCell id="pIviykfnkSEbJ2kZ1Z7Y-153" style="edgeStyle=orthogonalEdgeStyle;rounded=0;orthogonalLoop=1;jettySize=auto;html=1;exitX=0.5;exitY=1;exitDx=0;exitDy=0;entryX=0.5;entryY=0;entryDx=0;entryDy=0;" edge="1" parent="pIviykfnkSEbJ2kZ1Z7Y-75" source="pIviykfnkSEbJ2kZ1Z7Y-150" target="pIviykfnkSEbJ2kZ1Z7Y-18">
          <mxGeometry relative="1" as="geometry" />
        </mxCell>
        <mxCell id="pIviykfnkSEbJ2kZ1Z7Y-89" style="edgeStyle=orthogonalEdgeStyle;rounded=0;orthogonalLoop=1;jettySize=auto;html=1;exitX=0.5;exitY=1;exitDx=0;exitDy=0;entryX=0;entryY=0.5;entryDx=0;entryDy=0;" edge="1" parent="1" source="pIviykfnkSEbJ2kZ1Z7Y-18" target="pIviykfnkSEbJ2kZ1Z7Y-44">
          <mxGeometry relative="1" as="geometry" />
        </mxCell>
        <mxCell id="pIviykfnkSEbJ2kZ1Z7Y-129" value="异步通信" style="edgeLabel;html=1;align=center;verticalAlign=middle;resizable=0;points=[];" vertex="1" connectable="0" parent="pIviykfnkSEbJ2kZ1Z7Y-89">
          <mxGeometry x="0.116" relative="1" as="geometry">
            <mxPoint as="offset" />
          </mxGeometry>
        </mxCell>
        <mxCell id="pIviykfnkSEbJ2kZ1Z7Y-90" style="edgeStyle=orthogonalEdgeStyle;rounded=0;orthogonalLoop=1;jettySize=auto;html=1;exitX=1;exitY=0.5;exitDx=0;exitDy=0;entryX=0.5;entryY=1;entryDx=0;entryDy=0;" edge="1" parent="1" source="pIviykfnkSEbJ2kZ1Z7Y-44" target="pIviykfnkSEbJ2kZ1Z7Y-21">
          <mxGeometry relative="1" as="geometry" />
        </mxCell>
        <mxCell id="pIviykfnkSEbJ2kZ1Z7Y-130" value="异步通信" style="edgeLabel;html=1;align=center;verticalAlign=middle;resizable=0;points=[];" vertex="1" connectable="0" parent="pIviykfnkSEbJ2kZ1Z7Y-90">
          <mxGeometry x="-0.1894" y="-3" relative="1" as="geometry">
            <mxPoint as="offset" />
          </mxGeometry>
        </mxCell>
        <mxCell id="pIviykfnkSEbJ2kZ1Z7Y-94" style="edgeStyle=orthogonalEdgeStyle;rounded=0;orthogonalLoop=1;jettySize=auto;html=1;exitX=0.5;exitY=1;exitDx=0;exitDy=0;entryX=0.5;entryY=0;entryDx=0;entryDy=0;" edge="1" parent="1" source="pIviykfnkSEbJ2kZ1Z7Y-73" target="pIviykfnkSEbJ2kZ1Z7Y-38">
          <mxGeometry relative="1" as="geometry" />
        </mxCell>
        <mxCell id="pIviykfnkSEbJ2kZ1Z7Y-132" value="全局事务控制" style="edgeLabel;html=1;align=center;verticalAlign=middle;resizable=0;points=[];" vertex="1" connectable="0" parent="pIviykfnkSEbJ2kZ1Z7Y-94">
          <mxGeometry x="0.9207" y="1" relative="1" as="geometry">
            <mxPoint as="offset" />
          </mxGeometry>
        </mxCell>
        <mxCell id="pIviykfnkSEbJ2kZ1Z7Y-95" style="edgeStyle=orthogonalEdgeStyle;rounded=0;orthogonalLoop=1;jettySize=auto;html=1;exitX=0.5;exitY=1;exitDx=0;exitDy=0;entryX=0.5;entryY=0;entryDx=0;entryDy=0;" edge="1" parent="1" source="pIviykfnkSEbJ2kZ1Z7Y-73" target="pIviykfnkSEbJ2kZ1Z7Y-41">
          <mxGeometry relative="1" as="geometry" />
        </mxCell>
        <mxCell id="pIviykfnkSEbJ2kZ1Z7Y-134" value="文件存储" style="edgeLabel;html=1;align=center;verticalAlign=middle;resizable=0;points=[];" vertex="1" connectable="0" parent="pIviykfnkSEbJ2kZ1Z7Y-95">
          <mxGeometry x="0.8976" relative="1" as="geometry">
            <mxPoint as="offset" />
          </mxGeometry>
        </mxCell>
        <mxCell id="pIviykfnkSEbJ2kZ1Z7Y-97" style="edgeStyle=orthogonalEdgeStyle;rounded=0;orthogonalLoop=1;jettySize=auto;html=1;exitX=1;exitY=0.5;exitDx=0;exitDy=0;entryX=0.5;entryY=0;entryDx=0;entryDy=0;" edge="1" parent="1" source="pIviykfnkSEbJ2kZ1Z7Y-73" target="pIviykfnkSEbJ2kZ1Z7Y-51">
          <mxGeometry relative="1" as="geometry" />
        </mxCell>
        <mxCell id="pIviykfnkSEbJ2kZ1Z7Y-136" value="缓存数据存储" style="edgeLabel;html=1;align=center;verticalAlign=middle;resizable=0;points=[];" vertex="1" connectable="0" parent="pIviykfnkSEbJ2kZ1Z7Y-97">
          <mxGeometry x="0.2769" y="1" relative="1" as="geometry">
            <mxPoint as="offset" />
          </mxGeometry>
        </mxCell>
        <mxCell id="pIviykfnkSEbJ2kZ1Z7Y-98" value="主要业务数据" style="edgeStyle=orthogonalEdgeStyle;rounded=0;orthogonalLoop=1;jettySize=auto;html=1;exitX=0.5;exitY=1;exitDx=0;exitDy=0;entryX=0.5;entryY=0;entryDx=0;entryDy=0;" edge="1" parent="1" source="pIviykfnkSEbJ2kZ1Z7Y-51" target="pIviykfnkSEbJ2kZ1Z7Y-48">
          <mxGeometry relative="1" as="geometry" />
        </mxCell>
        <mxCell id="pIviykfnkSEbJ2kZ1Z7Y-100" style="edgeStyle=orthogonalEdgeStyle;rounded=0;orthogonalLoop=1;jettySize=auto;html=1;exitX=1;exitY=0.5;exitDx=0;exitDy=0;entryX=0.5;entryY=1;entryDx=0;entryDy=0;" edge="1" parent="1" source="pIviykfnkSEbJ2kZ1Z7Y-48" target="pIviykfnkSEbJ2kZ1Z7Y-54">
          <mxGeometry relative="1" as="geometry" />
        </mxCell>
        <mxCell id="pIviykfnkSEbJ2kZ1Z7Y-102" style="edgeStyle=orthogonalEdgeStyle;rounded=0;orthogonalLoop=1;jettySize=auto;html=1;exitX=1;exitY=0.5;exitDx=0;exitDy=0;entryX=0.5;entryY=0;entryDx=0;entryDy=0;" edge="1" parent="1" source="pIviykfnkSEbJ2kZ1Z7Y-73" target="pIviykfnkSEbJ2kZ1Z7Y-54">
          <mxGeometry relative="1" as="geometry" />
        </mxCell>
        <mxCell id="pIviykfnkSEbJ2kZ1Z7Y-137" value="搜索数据存储" style="edgeLabel;html=1;align=center;verticalAlign=middle;resizable=0;points=[];" vertex="1" connectable="0" parent="pIviykfnkSEbJ2kZ1Z7Y-102">
          <mxGeometry x="0.2955" y="-67" relative="1" as="geometry">
            <mxPoint x="71" y="67" as="offset" />
          </mxGeometry>
        </mxCell>
        <mxCell id="pIviykfnkSEbJ2kZ1Z7Y-103" style="edgeStyle=orthogonalEdgeStyle;rounded=0;orthogonalLoop=1;jettySize=auto;html=1;exitX=0.5;exitY=0;exitDx=0;exitDy=0;entryX=0;entryY=0.5;entryDx=0;entryDy=0;" edge="1" parent="1" source="pIviykfnkSEbJ2kZ1Z7Y-13" target="pIviykfnkSEbJ2kZ1Z7Y-57">
          <mxGeometry relative="1" as="geometry" />
        </mxCell>
        <mxCell id="pIviykfnkSEbJ2kZ1Z7Y-116" value="" style="edgeStyle=orthogonalEdgeStyle;rounded=0;orthogonalLoop=1;jettySize=auto;html=1;" edge="1" parent="1" source="pIviykfnkSEbJ2kZ1Z7Y-73">
          <mxGeometry relative="1" as="geometry">
            <mxPoint x="725" y="210" as="targetPoint" />
          </mxGeometry>
        </mxCell>
        <mxCell id="pIviykfnkSEbJ2kZ1Z7Y-128" value="数据存储" style="text;html=1;strokeColor=none;fillColor=none;align=center;verticalAlign=middle;whiteSpace=wrap;rounded=0;" vertex="1" parent="1">
          <mxGeometry x="1120.45" y="490" width="50" height="20" as="geometry" />
        </mxCell>
        <mxCell id="pIviykfnkSEbJ2kZ1Z7Y-154" style="edgeStyle=orthogonalEdgeStyle;rounded=0;orthogonalLoop=1;jettySize=auto;html=1;exitX=0.5;exitY=1;exitDx=0;exitDy=0;" edge="1" parent="1" source="pIviykfnkSEbJ2kZ1Z7Y-139">
          <mxGeometry relative="1" as="geometry">
            <mxPoint x="724" y="400" as="targetPoint" />
          </mxGeometry>
        </mxCell>
      </root>
    </mxGraphModel>
  </diagram>
</mxfile>
